<svg xmlns="http://www.w3.org/2000/svg" width="1024" height="1024" viewBox="0 0 1024 1024">
  <rect width="1024" height="1024" rx="220" fill="#0B0D0C"/>
  <circle cx="512" cy="512" r="330" fill="#151816" stroke="#303631" stroke-width="18"/>
  <g transform="rotate(-32 512 512)">
    <path d="M512 250c-130 0-236 106-236 236v26h472v-26c0-130-106-236-236-236Z" fill="#7DE2A2"/>
    <path d="M276 512v26c0 130 106 236 236 236s236-106 236-236v-26H276Z" fill="#F4F7F2"/>
    <rect x="258" y="486" width="508" height="74" rx="37" fill="#0B0D0C"/>
    <rect x="284" y="505" width="456" height="36" rx="18" fill="#303631"/>
  </g>
  <circle cx="768" cy="272" r="56" fill="#F0C75E"/>
  <path d="m768 232 11 29 29 11-29 11-11 29-11-29-29-11 29-11 11-29Z" fill="#0B0D0C"/>
</svg>
